<html>
<head>
<meta charset="UTF-8">
<meta name="viewport" content="width=device-width, initial-scale=1.0"/>

<style>
.comment
{
    padding-left: 20px;
    margin-top: 4px;
    margin-right: 4px;
    margin-bottom: 4px;
    border: 2px #000 solid;
}
.submission
{
    border: 4px #00f solid;
    padding-left: 20px;
}
.hidden
{
    display: none;
}
</style>
</head>
<body><div class="submission" id="t3_6mybrr">
    <p class="userinfo">
        <a href="https://www.reddit.com/u/n0197exe">n0197exe</a>
        <span class="score"> | 23 points</span>
        <span class="timestamp"> | Jul 13 2017 01:03:54</span>
    </p>
    <strong>[TV/PACK] Sherlock S04 1080p AMZN WEBRip DD5.1 [X.264] [14.97GB]</strong>
    <p><p><a href="http://imdb.com/title/tt1475582/">IMDb</a></p>
<hr>
<p><strong>MediaInfo -&gt; Episode 1</strong></p>
<p><strong>Video</strong></p>
<p>ID                                       : 1</p>
<p>Format                                   : AVC</p>
<p>Format/Info                              : Advanced Video Codec</p>
<p>Format profile                           : High@L4.1</p>
<p>Format settings, CABAC                   : Yes</p>
<p>Format settings, ReFrames                : 4 frames</p>
<p>Codec ID                                 : V_MPEG4/ISO/AVC</p>
<p>Duration                                 : 1h 28mn</p>
<p><strong>Bit rate                                 : 7 935 Kbps</strong></p>
<p><strong>Width                                    : 1 920 pixels</strong></p>
<p><strong>Height                                   : 1 080 pixels</strong></p>
<p>Display aspect ratio                     : 16:9</p>
<p>Frame rate mode                          : Constant</p>
<p>Frame rate                               : 25.000 fps</p>
<p>Color space                              : YUV</p>
<p>Chroma subsampling                       : 4:2:0</p>
<p>Bit depth                                : 8 bits</p>
<p>Scan type                                : Progressive</p>
<p>Bits/(Pixel*Frame)                       : 0.153</p>
<p>Stream size                              : 4.90 GiB (91%)</p>
<p>Writing library                          : x264 core 148 r2744kMod b97ae06</p>
<p><strong>Language                                 : English</strong></p>
<p>Default                                  : Yes</p>
<p>Forced                                   : No</p>
<hr>
<p><strong>Audio</strong></p>
<p>ID                                       : 2</p>
<p>Format                                   : E-AC-3</p>
<p>Format/Info                              : Audio Coding 3</p>
<p>Format settings, Endianness              : Big</p>
<p>Codec ID                                 : A_EAC3</p>
<p>Duration                                 : 1h 28mn</p>
<p>Bit rate mode                            : Constant</p>
<p><strong>Bit rate                                 : 640 Kbps</strong></p>
<p><strong>Channel(s)                               : 6 channels</strong></p>
<p>Channel positions                        : Front: L C R, Side: L R, LFE</p>
<p>Sampling rate                            : 48.0 KHz</p>
<p>Frame rate                               : 187.500 fps (256 spf)</p>
<p>Compression mode                         : Lossy</p>
<p>Stream size                              : 405 MiB (7%)</p>
<p><strong>Language                                 : English</strong></p>
<p>Default                                  : Yes</p>
<p>Forced                                   : No</p>
<hr>
<p><strong>Text</strong></p>
<p>ID                                       : 3</p>
<p>Format                                   : UTF-8</p>
<p>Codec ID                                 : S_TEXT/UTF8</p>
<p>Codec ID/Info                            : UTF-8 Plain Text</p>
<p>Title                                    : SDH</p>
<p><strong>Language                                 : English</strong></p>
<p>Default                                  : No</p>
<p>Forced                                   : No</p>
<hr>
<blockquote>
<p><strong>¡DELETE "MGL" FROM THE LINK</strong></p>
</blockquote>
<p><strong>LINK</strong> mega.co.nz/#F!ux1<strong>MGL</strong>y3ZpT</p>
<p><strong>KEY:</strong> !IHYUZPu8gJDaoavb5S0vzQ</p></p>
    <p class="toolbar">
        <a href="https://www.reddit.com/r/megalinks/comments/6mybrr">permalink</a>
    </p>
</div>
<div class="comment" id="t1_dk5p699">
    <p class="userinfo">
        <a
        class="toggle_hide_button"
        href="javascript:void(0)"
        onclick="toggle_collapse(this.parentElement.parentElement)">[-]
        </a>
        <a href="https://www.reddit.com/u/iskanderalex222">iskanderalex222</a>
        <span class="score"> | 1 points</span>
        <span class="timestamp"> | Jul 13 2017 07:53:39</span>
    </p>
    <div class="collapsible">
        <p>thank you for this :) 720 available plz :(</p>
        <p class="toolbar">
            <a href="https://www.reddit.com/r/megalinks/comments/6mybrr/_/dk5p699">permalink</a>
        </p>
        
    </div>
</div>
</body>

<script>
function toggle_collapse(comment_div)
{
    var button = comment_div.getElementsByClassName("toggle_hide_button")[0];
    var collapsible = comment_div.getElementsByClassName("collapsible")[0];
    if (collapsible.classList.contains("hidden"))
    {
        collapsible.classList.remove("hidden");
        button.innerText = "[-]";
    }
    else
    {
        collapsible.classList.add("hidden");
        button.innerText = "[+]";
    }
}
</script>
</html>
